<svg width="126" height="142" viewBox="0 0 126 142" xmlns="http://www.w3.org/2000/svg"><title>Group</title><g fill="none" fill-rule="evenodd"><path d="M63.12 142.017l-50.95-14.145L.817.52H125.58l-11.365 127.33-51.095 14.167z" fill="#85D9FC"/><path d="M104.483 119.95l9.714-108.81h-51v120.256l41.286-11.445z" fill="#B5E7FF"/><path d="M63.595 83.765V66.243L48.47 51.12l15.125.007V38.73l-30.093-.01c-.087 0-.17.016-.256.018-.17.006-.34.018-.51.038-.145.018-.287.045-.43.074-.152.03-.302.06-.452.1-.16.047-.314.1-.47.157-.085.03-.17.05-.253.084-.04.02-.08.05-.125.067-.157.07-.306.15-.455.23-.12.066-.243.13-.358.203-.137.085-.267.185-.398.28-.11.086-.22.167-.326.255-.126.108-.242.226-.358.345-.093.092-.19.184-.274.286-.113.128-.214.265-.316.404-.077.105-.154.205-.224.317-.094.14-.173.294-.253.447-.062.118-.125.233-.18.355-.025.052-.058.104-.082.16-.04.1-.063.21-.1.31-.045.13-.09.26-.126.395-.047.16-.082.328-.114.493-.025.132-.05.262-.067.394-.022.177-.03.356-.04.532-.003.083-.016.163-.016.247l.018 41.03c0 3.427 2.775 6.2 6.2 6.2 3.418.003 6.194-2.774 6.19-6.192l-.015-26.07 23.885 23.887z" fill="#EBEBEB"/><path d="M79.025 40.488c-1.122-1.122-2.67-1.818-4.38-1.818l-11.05-.004v12.397l11.053.006c3.42 0 6.195-2.774 6.194-6.197 0-1.712-.695-3.265-1.817-4.387zM89.18 91.765L63.595 66.182v17.522l16.824 16.824c1.512 1.515 3.61 2.084 5.565 1.705 1.17-.225 2.29-.79 3.2-1.7 1.21-1.21 1.813-2.796 1.812-4.38 0-1.588-.607-3.175-1.82-4.388z" fill="#FFF"/></g></svg>